<?xml version="1.0" encoding="UTF-8"?>
<svg width="500px" height="500px" viewBox="0 0 500 500" version="1.1" xmlns="http://www.w3.org/2000/svg" xmlns:xlink="http://www.w3.org/1999/xlink">
    <!-- Generator: Sketch 50 (54983) - http://www.bohemiancoding.com/sketch -->
    <title>Gradient Round SNES</title>
    <desc>Created with Sketch.</desc>
    <defs>
        <linearGradient x1="0%" y1="50%" x2="100%" y2="50%" id="linearGradient-1">
            <stop stop-color="#12D2F9" stop-opacity="0.2" offset="0%"></stop>
            <stop stop-color="#12D2F9" offset="100%"></stop>
        </linearGradient>
        <circle id="path-2" cx="250" cy="250" r="250"></circle>
        <linearGradient x1="0%" y1="50%" x2="100%" y2="50%" id="linearGradient-4">
            <stop stop-color="#FFFFFF" stop-opacity="0" offset="0%"></stop>
            <stop stop-color="#FFFFFF" offset="100%"></stop>
        </linearGradient>
    </defs>
    <g id="Gradient-Round-SNES" stroke="none" stroke-width="1" fill="none" fill-rule="evenodd">
        <g id="Background">
            <circle fill="#0B4CCC" cx="250" cy="250" r="250"></circle>
            <circle id="Background-Overlay" fill="url(#linearGradient-1)" cx="250" cy="250" r="250"></circle>
        </g>
        <g id="Rainbow" transform="translate(250.000000, 250.000000) rotate(10.000000) translate(-250.000000, -250.000000) ">
            <mask id="mask-3" fill="white">
                <use xlink:href="#path-2"></use>
            </mask>
            <g id="Mask"></g>
            <g id="Stripes" mask="url(#mask-3)">
                <g transform="translate(-58.000000, 118.000000)">
                    <rect id="Purple" fill="#D912F9" x="0" y="220" width="616" height="44"></rect>
                    <rect id="Blue" fill="#0B4CCC" x="0" y="176" width="616" height="44"></rect>
                    <rect id="Green" fill="#00E438" x="0" y="132" width="616" height="44"></rect>
                    <rect id="Yellow" fill="#FFF90E" x="0" y="88" width="616" height="44"></rect>
                    <rect id="Orange" fill="#FF8235" x="0" y="44" width="616" height="44"></rect>
                    <rect id="Red" fill="#FB0646" x="0" y="0" width="616" height="44"></rect>
                </g>
            </g>
            <rect id="Rectangle-2" fill="url(#linearGradient-4)" style="mix-blend-mode: overlay;" mask="url(#mask-3)" x="-58" y="118" width="616" height="264"></rect>
        </g>
        <g id="SNES-Controller" transform="translate(75.000000, 180.000000)">
            <g id="Controller">
                <path d="M139.691,128.896 L211.256,128.896 C225.653,146.289 247.434,157.374 271.81,157.374 C315.162,157.374 350.306,122.312 350.306,79.061 C350.306,35.809 315.162,0.747 271.81,0.747 L79.138,0.747 C35.785,0.747 0.6416,35.809 0.6416,79.061 C0.6416,122.312 35.785,157.374 79.138,157.374 C103.513,157.374 125.294,146.289 139.691,128.896 Z" id="Fill-10" fill="#FFFFFF"></path>
                <path d="M250.877,64.347 C257.441,64.347 262.771,69.664 262.771,76.213 C262.771,82.762 257.441,88.078 250.877,88.078 C244.313,88.078 238.984,82.762 238.984,76.213 C238.984,69.664 244.313,64.347 250.877,64.347 Z" id="Fill-11" fill="#0B4CCC"></path>
                <path d="M274.664,88.078 C281.228,88.078 286.557,93.395 286.557,99.944 C286.557,106.493 281.228,111.81 274.664,111.81 C268.1,111.81 262.771,106.493 262.771,99.944 C262.771,93.395 268.1,88.078 274.664,88.078 Z" id="Fill-12" fill="#0B4CCC"></path>
                <path d="M298.451,64.347 C305.015,64.347 310.344,69.664 310.344,76.213 C310.344,82.762 305.015,88.078 298.451,88.078 C291.887,88.078 286.557,82.762 286.557,76.213 C286.557,69.664 291.887,64.347 298.451,64.347 Z" id="Fill-13" fill="#0B4CCC"></path>
                <path d="M274.664,40.616 C281.228,40.616 286.557,45.933 286.557,52.482 C286.557,59.03 281.228,64.347 274.664,64.347 C268.1,64.347 262.771,59.03 262.771,52.482 C262.771,45.933 268.1,40.616 274.664,40.616 Z" id="Fill-14" fill="#0B4CCC"></path>
                <path d="M171.906,95.299 C171.906,94.195 171.009,93.299 169.906,93.299 L152.498,93.299 C151.394,93.299 150.498,94.195 150.498,95.299 L150.498,98.419 C150.498,99.522 151.394,100.419 152.498,100.419 L169.906,100.419 C171.009,100.419 171.906,99.522 171.906,98.419 L171.906,95.299 Z" id="Fill-15" fill="#0B4CCC"></path>
                <path d="M200.45,95.299 C200.45,94.195 199.553,93.299 198.45,93.299 L181.042,93.299 C179.938,93.299 179.042,94.195 179.042,95.299 L179.042,98.419 C179.042,99.522 179.938,100.419 181.042,100.419 L198.45,100.419 C199.553,100.419 200.45,99.522 200.45,98.419 L200.45,95.299 Z" id="Fill-16" fill="#0B4CCC"></path>
                <polygon id="Fill-17" fill="#0B4CCC" points="40.603 90.452 111.963 90.452 111.963 63.7543 40.603 63.7543"></polygon>
                <polygon id="Fill-18" fill="#0B4CCC" points="62.011 111.81 88.771 111.81 88.771 40.6162 62.011 40.6162"></polygon>
            </g>
        </g>
    </g>
</svg>