<svg width="500px" height="500px" viewBox="0 0 500 500" version="1.1" xmlns="http://www.w3.org/2000/svg" xmlns:xlink="http://www.w3.org/1999/xlink">
    <defs>
        <linearGradient x1="0%" y1="50%" x2="100%" y2="50%" id="linearGradient-1">
            <stop stop-color="#12D2F9" stop-opacity="0.2" offset="0%"></stop>
            <stop stop-color="#12D2F9" offset="100%"></stop>
        </linearGradient>
        <circle id="path-2" cx="250" cy="250" r="250"></circle>
        <linearGradient x1="0%" y1="50%" x2="100%" y2="50%" id="linearGradient-4">
            <stop stop-color="#FFFFFF" stop-opacity="0" offset="0%"></stop>
            <stop stop-color="#FFFFFF" offset="100%"></stop>
        </linearGradient>
    </defs>
    <g id="Logos" stroke="none" stroke-width="1" fill="none" fill-rule="evenodd">
        <g id="Background">
            <circle fill="#0B4CCC" cx="250" cy="250" r="250"></circle>
            <circle id="Background-Overlay" fill="url(#linearGradient-1)" cx="250" cy="250" r="250"></circle>
        </g>
        <g id="Rainbow" transform="translate(250.000000, 250.000000) rotate(10.000000) translate(-250.000000, -250.000000) ">
            <mask id="mask-3" fill="white">
                <use xlink:href="#path-2"></use>
            </mask>
            <g id="Mask"></g>
            <g id="Stripes" mask="url(#mask-3)">
                <g transform="translate(-58.000000, 118.000000)">
                    <rect id="Purple" fill="#D912F9" x="0" y="220" width="616" height="44"></rect>
                    <rect id="Blue" fill="#0B4CCC" x="0" y="176" width="616" height="44"></rect>
                    <rect id="Green" fill="#00E438" x="0" y="132" width="616" height="44"></rect>
                    <rect id="Yellow" fill="#FFF90E" x="0" y="88" width="616" height="44"></rect>
                    <rect id="Orange" fill="#FF8235" x="0" y="44" width="616" height="44"></rect>
                    <rect id="Red" fill="#FB0646" x="0" y="0" width="616" height="44"></rect>
                </g>
            </g>
            <rect id="Rectangle-2" fill="url(#linearGradient-4)" mask="url(#mask-3)" x="-58" y="118" width="616" height="264" style="mix-blend-mode: overlay;"></rect>
        </g>
        <g id="Controller" transform="translate(94.000000, 146.000000)">
            <rect id="Rectangle" fill="#0B4CCC" x="49.4090476" y="26.4280952" width="220.617143" height="118.351905"></rect>
            <path d="M306.848744,123.40372 C304.922247,114.32557 282.088287,40.3213665 272.185473,28.4920545 C251.94527,16.1118258 232.125954,12.1527532 222.455825,10.9037804 C218.729438,10.4213005 215.009895,11.8276781 212.505105,14.6301677 L189.989377,39.8286211 C187.676211,42.4189564 184.367289,43.8971926 180.89754,43.8971926 L156.277378,43.8971926 L131.657216,43.8971926 C128.184045,43.8971926 124.878544,42.4155345 122.565378,39.8286211 L100.04965,14.6301677 C97.5448608,11.8276781 93.8253173,10.4213005 90.09893,10.9037804 C80.4253792,12.156175 60.6060634,16.1118258 40.3692826,28.4920545 C30.4664684,40.3213665 7.63250864,114.32557 5.70601092,123.40372 C3.77951319,132.48187 -15.4751986,199.608168 32.1157968,208.686318 C62.7738696,208.686318 72.0042231,166.871394 93.4626019,156.417663 C106.619589,154.022373 121.980243,154.768334 156.277378,154.768334 C191.125429,154.768334 205.938588,154.025794 219.092153,156.417663 C240.550532,166.871394 246.100108,208.686318 280.438959,208.686318 C328.029954,199.608168 308.77182,132.485291 306.848744,123.40372 Z M76.5860712,85.1646217 C63.6720349,85.1646217 53.2011947,74.6937815 53.2011947,61.7797452 C53.2011947,48.865709 63.6720349,38.3948688 76.5860712,38.3948688 C89.5001074,38.3948688 99.9709477,48.865709 99.9709477,61.7797452 C99.9709477,74.6972034 89.5001074,85.1646217 76.5860712,85.1646217 Z M138.302435,117.672132 C138.302435,119.11615 137.132165,120.289842 135.684725,120.289842 L124.676656,120.289842 C123.947803,120.289842 123.355824,120.881821 123.355824,121.610674 L123.355824,132.618743 C123.355824,134.062761 122.185554,135.236453 120.738114,135.236453 L110.749754,135.236453 C109.305736,135.236453 108.132044,134.066183 108.132044,132.618743 L108.132044,121.607252 C108.132044,120.878399 107.540065,120.28642 106.811212,120.28642 L95.8031426,120.28642 C94.3591248,120.28642 93.1854326,119.11615 93.1854326,117.66871 L93.1854326,107.68035 C93.1854326,106.236332 94.3557029,105.06264 95.8031426,105.06264 L106.811212,105.06264 C107.540065,105.06264 108.132044,104.470661 108.132044,103.741809 L108.132044,92.7337389 C108.132044,91.2897211 109.302314,90.1160289 110.749754,90.1160289 L120.738114,90.1160289 C122.182132,90.1160289 123.355824,91.2862992 123.355824,92.7337389 L123.355824,103.741809 C123.355824,104.470661 123.947803,105.06264 124.676656,105.06264 L135.684725,105.06264 C137.128743,105.06264 138.302435,106.23291 138.302435,107.68035 L138.302435,117.672132 Z M139.076459,69.2085669 C135.278213,69.2085669 132.198554,66.128908 132.198554,62.330662 C132.198554,58.532416 135.278213,55.4527572 139.076459,55.4527572 C142.874705,55.4527572 145.954364,58.532416 145.954364,62.330662 C145.950942,66.1323298 142.874705,69.2085669 139.076459,69.2085669 Z M236.748864,30.969469 C242.624169,30.969469 247.387375,35.7326747 247.387375,41.6079795 C247.387375,47.4832843 242.624169,52.2464901 236.748864,52.2464901 C230.87356,52.2464901 226.110354,47.4832843 226.110354,41.6079795 C226.113776,35.7326747 230.876981,30.969469 236.748864,30.969469 Z M174.474053,55.456179 C178.272299,55.456179 181.351958,58.5358379 181.351958,62.3340838 C181.351958,66.1323298 178.272299,69.2119887 174.474053,69.2119887 C170.675807,69.2119887 167.596148,66.1323298 167.596148,62.3340838 C167.59957,58.5358379 170.675807,55.456179 174.474053,55.456179 Z M196.723564,133.13202 C183.809528,133.13202 173.338688,122.66118 173.338688,109.747143 C173.338688,96.8331071 183.809528,86.3622669 196.723564,86.3622669 C209.637601,86.3622669 220.108441,96.8331071 220.108441,109.747143 C220.108441,122.664601 209.641023,133.13202 196.723564,133.13202 Z M214.873021,72.9691725 C208.997716,72.9691725 204.23451,68.2059668 204.23451,62.330662 C204.23451,56.4553572 208.997716,51.6921515 214.873021,51.6921515 C220.748326,51.6921515 225.511531,56.4553572 225.511531,62.330662 C225.511531,68.2059668 220.748326,72.9691725 214.873021,72.9691725 Z M236.748864,94.2461936 C230.87356,94.2461936 226.110354,89.4829879 226.110354,83.6076831 C226.110354,77.7323783 230.87356,72.9691725 236.748864,72.9691725 C242.624169,72.9691725 247.387375,77.7323783 247.387375,83.6076831 C247.387375,89.4829879 242.624169,94.2461936 236.748864,94.2461936 Z M195.688726,7.85734605 C195.238615,7.90154788 194.781746,7.9287265 194.328274,7.9287265 L157.102042,7.9287265 L156.551125,7.9287265 L118.223059,7.9287265 C117.774798,7.9287265 117.329958,7.90135175 116.88854,7.86028964 L116.882251,7.87130002 C115.51521,7.53863795 112.203612,6.68334246 111.026923,6.00565062 L100.980391,0.226157436 C100.980391,0.226157436 76.1320572,2.48183918 46.4133489,18.2360053 C44.4936949,19.2557146 42.964131,20.884512 42.1018265,22.8794466 C40.017924,27.6905581 38.0750029,31.8976277 38.0750029,31.8976277 L38.3070024,31.5264443 C56.7746902,21.3841011 81.215825,12.9451486 90.09893,11.7954093 C93.8253173,11.3129294 98.0957776,12.719307 100.600567,15.5217966 L108.070651,23.9052601 L108.077384,23.8931021 L123.112873,40.7236718 C125.426039,43.3140071 128.734962,44.7922434 132.204711,44.7922434 L155.726461,44.7922434 L156.277378,44.7922434 L180.346623,44.7922434 C183.819794,44.7922434 187.125294,43.3105853 189.43846,40.7236718 L204.24539,24.1521167 L204.289778,24.2366468 L211.95761,15.5252184 C214.458978,12.7227288 218.73286,11.3163513 222.459247,11.7988312 C231.390258,12.9554142 253.846096,18.5149936 272.423283,28.7839451 C272.410879,28.7839451 270.557436,24.7366761 268.230872,19.9795421 C267.258544,17.99142 265.932046,16.3489668 264.012392,15.3326794 C234.293684,-0.42490858 211.570942,0.229579279 211.570942,0.229579279 L201.52441,6.00907246 C200.35414,6.68317557 196.98206,7.52242601 195.68176,7.84407927 L195.688726,7.85734605 Z M258.025886,72.9691725 C252.150581,72.9691725 247.387375,68.2059668 247.387375,62.330662 C247.387375,56.4553572 252.150581,51.6921515 258.025886,51.6921515 C263.90119,51.6921515 268.664396,56.4553572 268.664396,62.330662 C268.664396,68.2059668 263.90119,72.9691725 258.025886,72.9691725 Z" id="Shape" fill="#FFFFFF" fill-rule="nonzero"></path>
        </g>
    </g>
</svg>